<svg xmlns="http://www.w3.org/2000/svg" id="svg21" width="256" height="256" viewBox="0 0 256 256"><defs id="defs1"><style id="style1">.cls-1{fill:#7f3f98}.cls-3{fill:#643278}</style></defs><g id="Layer_1" data-name="Layer 1" transform="translate(-118.717 .023)"><g id="g9" transform="translate(43.55 12.96)"><path id="path1" d="M138.13 159.26c10.841-11.873 27.043-20.597 43.493-17.934 9.453 5.115 4.324 17.421 1.449 25.105-5.724 14-15.439 28.203-30.191 33.479-9.539 3.094-25.267 4.43-28.556-7.879-2.315-12.407 5.6-24.23 13.805-32.771" class="cls-3"/><path id="path2" d="M160 185.39c4.932-13.55 15.208-25.549 28.951-30.537 10.074-3.84 17.454 7.043 17.128 16.06 1.052 10.533-1.851 20.976-7.206 30.004-4.837 10.324-11.666 21.322-23.305 24.67-9.13 3.253-18.502-4.079-20.419-12.94-2.491-9.253 1.17-18.854 4.851-27.257" class="cls-1"/><path id="path3" d="M269.97 160.01c-6.893-8.064-15.693-14.924-26.415-16.662-7.334-2.39-19.93-5.204-22.478 4.97-2.896 13.506 7.616 24.509 14.21 35.084 7.678 10.199 19.212 17.798 31.73 20.344 10.87.76 20.538-10.648 17.275-21.259-1.762-8.981-7.877-16.323-14.322-22.477" class="cls-3"/><path id="path4" d="M242.28 191.13c-1.371-10.11-5.117-20.427-13.133-27.152-4.22-4.694-10.194-9.613-16.94-8.234-6.206 1.943-8.403 8.852-10.406 14.36-1.397 5.463-4.584 10.743-3.45 16.562 1.129 6.865 4.402 13.129 6.006 19.877 2.955 9.089 7.993 18.842 17.349 22.59 11.315 4.082 23.596-6.047 24.305-17.46.493-7.062-1.872-13.842-3.731-20.543" class="cls-1"/><ellipse id="ellipse1" cx="206.27" cy="95.15" rx="51.14" ry="41.33" style="fill:#fff"/><path id="path5" d="M203.41.01c-33.747.242-68.705 19.809-80.79 52.363-9.624 26.155-.361 55.552 15.915 76.959 16.007 21.32 41.454 37.77 68.858 36.563 26.764-2.424 52.47-17.182 66.378-40.471 18.84-29.842 19.427-72.32-4.283-99.729C253.207 7.027 227.552-.595 203.41.01M175.063 82.3q.58-.01 1.16.028c9.311.292 22.97 9.514 17.173 19.834-5.952 7.388-17.96 8.663-25.996 4.174-9.115-5.849-6.083-21.08 4.223-23.541a14 14 0 0 1 3.44-.494m55.421.026q.925-.002 1.834.078c10.732-.606 19.258 14.395 11.096 22.444-8.687 7.175-25.073 6.174-28.861-5.858-3.1-10.583 6.706-16.646 15.931-16.664m-.46 1.738c-2.75-.035-5.492 1.365-7.434 4.786 6.38-1.22 7.42 8.78.87 8.77-10.88 5.27 18.3 18.59 16.9-1.73l-.01-.01c.203-6.45-5.077-11.748-10.327-11.816zm-52.108.028c-3.19-.043-6.355 1.67-8.275 5.799 6.42-5.1 11.489 7.308 3.039 7.728-15.92-3.86 13.82 25.132 15.73-1.728l.01-.01c.2-6.769-5.186-11.718-10.504-11.79z" class="cls-1"/></g></g></svg>