<svg viewBox="0 0 256.00001 255.99999" version="1.1" id="svg21" sodipodi:docname="cafundo_logo.svg" inkscape:version="1.4.4 (dcaf3e7d9e, 2026-05-05)" width="256" height="256" xmlns:inkscape="http://www.inkscape.org/namespaces/inkscape" xmlns:sodipodi="http://sodipodi.sourceforge.net/DTD/sodipodi-0.dtd" xmlns="http://www.w3.org/2000/svg" xmlns:svg="http://www.w3.org/2000/svg"><sodipodi:namedview id="namedview21" pagecolor="#505050" bordercolor="#ffffff" borderopacity="1" inkscape:showpageshadow="0" inkscape:pageopacity="0" inkscape:pagecheckerboard="1" inkscape:deskcolor="#505050" inkscape:zoom="1.6489525" inkscape:cx="78.534706" inkscape:cy="130.68903" inkscape:window-width="1600" inkscape:window-height="872" inkscape:window-x="0" inkscape:window-y="0" inkscape:window-maximized="1" inkscape:current-layer="Layer_1"/><defs id="defs1"><style id="style1">.cls-1 {
        fill: #7f3f98;
      }

      .cls-2 {
        fill: #fff;
      }

      .cls-3 {
        fill: #643278;
      }</style></defs><g id="Layer_1" data-name="Layer 1" inkscape:label="Logo" transform="translate(-118.71695.02345)"><g id="g9" inkscape:label="Octo" transform="translate(43.550426 12.960782)"><path class="cls-3" d="m138.13 159.26c10.8411-11.87252 27.04253-20.59688 43.49309-17.93406 9.45265 5.11459 4.32404 17.42153 1.44868 25.1055-5.7236 13.99999-15.43879 28.20301-30.19105 33.47825-9.53825 3.09409-25.26718 4.43106-28.55527-7.87869-2.31567-12.40663 5.59996-24.23042 13.80455-32.771z" id="path1"/><path class="cls-1" d="m160 185.39c4.93223-13.55059 15.20773-25.54851 28.95134-30.53665 10.07385-3.84083 17.45412 7.04238 17.12717 16.0592 1.05204 10.53369-1.85097 20.97687-7.20521 30.00465-4.83724 10.32331-11.66621 21.32152-23.30565 24.66938-9.12896 3.25334-18.50116-4.07842-20.41844-12.93961C152.65758 203.39371 156.3193 193.79287 160 185.39Z" id="path2"/><path class="cls-3" d="m269.97 160.01c-6.89292-8.06428-15.69293-14.92376-26.41466-16.66197-7.33394-2.38917-19.9296-5.20448-22.47833 4.96942-2.89635 13.50687 7.61642 24.50937 14.20922 35.08488 7.67894 10.1982 19.21243 17.79807 31.7312 20.34403 10.86956.75999 20.53727-10.64799 17.27433-21.25919-1.76173-8.9814-7.87649-16.32304-14.32176-22.47717z" id="path3"/><path class="cls-1" d="m242.28 191.13c-1.3715-10.10918-5.11748-20.42745-13.13345-27.15177-4.2193-4.69448-10.19331-9.6131-16.93981-8.23429-6.2059 1.94298-8.40283 8.85239-10.40557 14.35996-1.39683 5.46295-4.58377 10.74281-3.45078 16.56242 1.12963 6.86447 4.40275 13.12848 6.00693 19.87678 2.95451 9.08863 7.99252 18.84206 17.3482 22.59016 11.31564 4.08125 23.59653-6.04774 24.30584-17.46036.49305-7.06223-1.87279-13.84154-3.73136-20.5429z" id="path4"/><ellipse class="cls-2" cx="206.27" cy="95.150002" rx="51.139999" ry="41.330002" id="ellipse1"/><path id="path5" class="cls-1" d="M203.41016.009766C169.66341.251688 134.70494 19.818964 122.61914 52.373047c-9.62325 26.154845-.36055 55.552093 15.91602 76.958983 16.00693 21.32065 41.45347 37.76954 68.85742 36.5625 26.76439-2.42386 52.4706-17.18159 66.3789-40.4707 18.83974-29.842069 19.42654-72.320487-4.2832-99.728518C253.20689 7.027007 227.55225-.595106 203.41016.009766ZM175.0625 82.300781c.38708-.007.77386.0023 1.16016.02734 9.31135.291775 22.97007 9.514161 17.17382 19.833989-5.95257 7.38742-17.9599 8.66275-25.99609 4.17383-9.11531-5.84877-6.08385-21.079479 4.22266-23.541022 1.11975-.308859 2.27822-.473221 3.43945-.494141zm55.42188.02539c.61499-.0012 1.22814.02516 1.83398.07813 10.73209-.606609 19.25754 14.394257 11.0957 22.443359-8.68684 7.17573-25.0731 6.17404-28.86133-5.857422-3.09892-10.583157 6.70672-16.645894 15.93165-16.664062zm-.46094 1.738281c-2.75006-.03517-5.49141 1.364844-7.4336 4.785156 6.38-1.22 7.4211 8.779532.8711 8.769532-10.88 5.27 18.29844 18.59149 16.89844-1.728516l-.01-.0098c.20344-6.450937-5.07606-11.749256-10.32617-11.816406zm-52.10742.02734c-3.19055-.04289-6.35539 1.670078-8.2754 5.798828 6.42-5.1 11.48907 7.308516 3.03907 7.728516-15.92-3.86 13.82047 25.131494 15.73047-1.728516l.01-.0098c.2-6.76875-5.18633-11.717578-10.5039-11.789062z"/></g></g></svg>
