<svg xmlns="http://www.w3.org/2000/svg" id="svg21" viewBox="0 0 409.52 291.17"><defs id="defs1"><style id="style1">.cls-1{fill:#7f3f98}.cls-3{fill:#643278}</style></defs><g id="Layer_1" data-name="Layer 1"><g id="g21"><path id="path9" d="M33 255.37c.87 12.667-19.175 14.359-14.4-.56-6.758-8.824-9.605 8.317-10.69 13.77.072 12.45 17.33 11.183 23.58 4.32 5.78 9.05-6.658 17.74-15.72 14.71-7.053 1.112-9.404-6.216-13.8-9.72-3.782-6.171-.335-15.673.9-22.93-.16-5.791 4.85-9.157 9.13-11.65 6.771 1.108 16.486.358 19.17 8.2.878 1.124 1.716 2.4 1.83 3.86" class="cls-1"/><path id="path10" d="M65.02 267.79c-.256 5.774 1.214 27.776-7.27 19.33 1.12-8.613-20.863 12.953-22.43-4.24.601-5.443-1.187-13.194 6.27-14.16 3.556-5.228 18.96 1.415 13.97-7.09-5.14-4.707-24.017 8.981-17.03-2.48 5.962-5.006 14-8.71 21.46-4.16 3.283 3.053 4.293 8.601 5.03 12.8m-7.33 8.15c2.505-8.388-10.053-2.963-13.5-1.73-1.82 8.195 9.573.862 13.5 1.73" class="cls-1"/><path id="path11" d="M93.71 254.48c-9.269 8.223-10.288-2.623-13.45-6.92-7.431 1.335 1.292 8.674-.38 13.36 8.72-5.836 19.409 6.767 5.36 6.78-10.7-.582 3.553 16.21-5.416 18.816-10.293 4.223-11.235-9.32-8.714-16.336.397-3.146-8.873-6.548.24-7.77-4.515-12.496 4.169-27.432 18.69-20.51 2.27 3.164 4.348 8.683 3.67 12.58" class="cls-1"/><path id="path12" d="M125.64 276.25c1.768 9.6-10.988 7.231-9.43.01-8.463 4.716-24.702 7.236-21.53-7.96-.081-8.025 3.058-22.477 12.9-13.36.212 5.274-2.516 12.65.1 16.69 16.812 6.02 2.588-18.403 13.56-16.34 2.335 6.59.895 14.439 4.4 20.96" class="cls-1"/><path id="path13" d="M156.65 273.74c4.655 10.487-14.229 15.034-12.04 2.81.78-13.07-13.332-2.684-7.8 6.1-3.962 11.262-8.232-5.168-7.53-10.61-6.688-9.41 8.295-17.818 8.4-6.13 6.52-2.004 17.023-5.958 18.78 3.34-.373 1.472.282 3.238.19 4.49" class="cls-1"/><path id="path14" d="M192.09 280.37c2.862 13.238-11.474 5.632-12.07 2.1-6.562 1.945-19.66 3.775-20.76-5.6-.088-7.08-.242-14.538 4.44-20.2 8.74-4.605 23.324 5.854 18.82-9.26.132-13.46 10.481-.069 6.56 7.28 2.444 8.256 1.827 17.164 3.01 25.68m-9.06-15.08c-7.75-5.462-18.522 5.658-8.9 9.57 8.151-1.029 9.864-1.417 8.9-9.57" class="cls-1"/><path id="path15" d="M221.4 268.31c.028 10.102-6.005 22.276-18.34 15.8-8.672-2.802-9.007-14.845-6.2-21.71.533-9.146 16.75-6.182 20.51-2.19 1.214 2.789 3.01 5.206 4.03 8.1m-7.3 1.56c3.338-15.004-21.338-4.516-8.9 4.06 3.411 2.814 10.166 1.893 8.89-4.07zm4.49-20.27c-7.082 7.567-18.082 4.01-6.6-4.25 2.709-4.67 7.895.504 6.6 4.25" class="cls-1"/><path id="path16" d="M275.15 272.31c-6.919.053-6.437 6.74-3.55 11.1 2.803 17.897-10.151-3.871-10.13 3.05-6.618 5.892-24.212 1.149-23.33-9 1.905-6.248.123-12.529 2.04-18.79.845-10.687 10.315-19.324 21.09-14.51 8.886-.637 15.18 13.676 8.38 18.16-8.171 4.991-11.493-1.807-11.78-9.03-10.73-2.512-7.238 13.542-8.91 20.03-2.18 11.74 18.964 6.3 10.53 2.7-11.165.852-4.03-14.34 5.05-8.53 4.118.582 13.422-3.084 10.61 4.82" class="cls-1"/><path id="path17" d="M305.92 267.79c-.256 5.774 1.214 27.776-7.27 19.33 1.099-8.614-20.86 12.952-22.43-4.24.607-5.442-1.205-13.194 6.26-14.16 3.558-5.229 18.933 1.417 13.97-7.09-5.14-4.707-24.017 8.981-17.03-2.48 5.962-5.006 14-8.71 21.46-4.16 3.286 3.057 4.279 8.587 5.04 12.8m-7.33 8.15c2.505-8.388-10.053-2.963-13.5-1.73-1.82 8.195 9.573.862 13.5 1.73" class="cls-1"/><path id="path18" d="M350 279.3c-5.278 6.111-13.478-1.24-9.71-7.5 2.515-14.869-10.723-3.975-4.666 4.816 4.457 8.548-10.28 14.428-12.334 5.474 2.565-6.839-1.497-19.077-7.51-8.78 2.46 5.744 2.945 19.608-6.02 12.77-.675-8.782.82-17.708.57-26.6 7.858-6.612 2.504 12.712 11.71 3.9 9.133.394 12.797-4.966 22.57-5.12 7.442 3.359 4.298 14.715 5.39 21.04" class="cls-1"/><path id="path19" d="M380.37 279.54c1.035 10.562-12.963 7.707-19.53 6.45-9.778-2.803-9.7-18.256-6.68-25.9 6.061-5.557 21.561-10.174 24.26 1.02 2.605 10.173-10.974 9.22-17.46 11.28-2.273 10.635 18.577-1.103 19.41 7.15m-11.81-14.04c1.02-12.235-17.2 4.07-4.44 1.36 1.433-.276 3.546.017 4.44-1.36" class="cls-1"/><path id="path20" d="M409.28 281.62c-3.591 8.112-12.407 6.562-19.81 6.42-12.098-.988-8.035-24.386 2.98-13.92 1.628 4 7.978 12.503 9.06 3.44.361-9.68-25.476-7.43-14.24-21.18 5.827-7.273 27.647 4.239 14.84 7.28-6.305-7.214-14.952.418-4.25 2.7 8.79.027 12.01 7.718 11.42 15.26" class="cls-1"/></g><g id="g9"><path id="path1" d="M138.13 159.26c10.841-11.873 27.043-20.597 43.493-17.934 9.453 5.115 4.324 17.421 1.449 25.105-5.724 14-15.439 28.203-30.191 33.479-9.539 3.094-25.267 4.43-28.556-7.879-2.315-12.407 5.6-24.23 13.805-32.771" class="cls-3"/><path id="path2" d="M160 185.39c4.932-13.55 15.208-25.549 28.951-30.537 10.074-3.84 17.454 7.043 17.128 16.06 1.052 10.533-1.851 20.976-7.206 30.004-4.837 10.324-11.666 21.322-23.305 24.67-9.13 3.253-18.502-4.079-20.419-12.94-2.491-9.253 1.17-18.854 4.851-27.257" class="cls-1"/><path id="path3" d="M269.97 160.01c-6.893-8.064-15.693-14.924-26.415-16.662-7.334-2.39-19.93-5.204-22.478 4.97-2.896 13.506 7.616 24.509 14.21 35.084 7.678 10.199 19.212 17.798 31.73 20.344 10.87.76 20.538-10.648 17.275-21.259-1.762-8.981-7.877-16.323-14.322-22.477" class="cls-3"/><path id="path4" d="M242.28 191.13c-1.371-10.11-5.117-20.427-13.133-27.152-4.22-4.694-10.194-9.613-16.94-8.234-6.206 1.943-8.403 8.852-10.406 14.36-1.397 5.463-4.584 10.743-3.45 16.562 1.129 6.865 4.402 13.129 6.006 19.877 2.955 9.089 7.993 18.842 17.349 22.59 11.315 4.082 23.596-6.047 24.305-17.46.493-7.062-1.872-13.842-3.731-20.543" class="cls-1"/><ellipse id="ellipse1" cx="206.27" cy="95.15" rx="51.14" ry="41.33" style="fill:#fff"/><path id="path5" d="M203.41.01c-33.747.242-68.705 19.809-80.79 52.363-9.624 26.155-.361 55.552 15.915 76.959 16.007 21.32 41.454 37.77 68.858 36.563 26.764-2.424 52.47-17.182 66.378-40.471 18.84-29.842 19.427-72.32-4.283-99.729C253.207 7.027 227.552-.595 203.41.01M175.063 82.3q.58-.01 1.16.028c9.311.292 22.97 9.514 17.173 19.834-5.952 7.388-17.96 8.663-25.996 4.174-9.115-5.849-6.083-21.08 4.223-23.541a14 14 0 0 1 3.44-.494m55.421.026q.925-.002 1.834.078c10.732-.606 19.258 14.395 11.096 22.444-8.687 7.175-25.073 6.174-28.861-5.858-3.1-10.583 6.706-16.646 15.931-16.664m-.46 1.738c-2.75-.035-5.492 1.365-7.434 4.786 6.38-1.22 7.42 8.78.87 8.77-10.88 5.27 18.3 18.59 16.9-1.73l-.01-.01c.203-6.45-5.076-11.748-10.327-11.816m-52.108.028c-3.19-.043-6.355 1.67-8.275 5.799 6.42-5.1 11.489 7.308 3.039 7.728-15.92-3.86 13.82 25.132 15.73-1.728l.01-.01c.2-6.769-5.186-11.718-10.504-11.79" class="cls-1"/></g></g></svg>