<svg viewBox="0 0 409.52 291.17" version="1.1" id="svg21" sodipodi:docname="cafundo_logo.svg" inkscape:version="1.4.4 (dcaf3e7d9e, 2026-05-05)" xmlns:inkscape="http://www.inkscape.org/namespaces/inkscape" xmlns:sodipodi="http://sodipodi.sourceforge.net/DTD/sodipodi-0.dtd" xmlns="http://www.w3.org/2000/svg" xmlns:svg="http://www.w3.org/2000/svg"><sodipodi:namedview id="namedview21" pagecolor="#505050" bordercolor="#ffffff" borderopacity="1" inkscape:showpageshadow="0" inkscape:pageopacity="0" inkscape:pagecheckerboard="1" inkscape:deskcolor="#505050" inkscape:zoom="1.1659855" inkscape:cx="117.06835" inkscape:cy="153.94703" inkscape:window-width="1600" inkscape:window-height="872" inkscape:window-x="0" inkscape:window-y="0" inkscape:window-maximized="1" inkscape:current-layer="Layer_1"/><defs id="defs1"><style id="style1">.cls-1 {
        fill: #7f3f98;
      }

      .cls-2 {
        fill: #fff;
      }

      .cls-3 {
        fill: #643278;
      }</style></defs><g id="Layer_1" data-name="Layer 1" inkscape:label="Logo"><g id="g21" inkscape:label="Nome"><path class="cls-1" d="m33 255.37c.869341 12.66708-19.174833 14.35889-14.4-.56-6.757981-8.82375-9.605304 8.31749-10.69 13.77.07177 12.4498 17.330406 11.18336 23.58 4.32 5.780017 9.04991-6.658039 17.74028-15.72 14.71-7.053106 1.11191-9.404467-6.21614-13.8-9.72-3.782459-6.17106-.335126-15.67338.9-22.93-.160046-5.791 4.850898-9.15725 9.13-11.65 6.770961 1.10782 16.486036.35836 19.17 8.2.878164 1.12442 1.71572 2.40088 1.83 3.86z" id="path9"/><path class="cls-1" d="m65.02 267.79c-.256161 5.77396 1.21398 27.77574-7.27 19.33 1.120719-8.61288-20.863291 12.95336-22.43-4.24.601232-5.44257-1.187129-13.194 6.27-14.16 3.555783-5.22848 18.960134 1.41501 13.97-7.09-5.140328-4.70718-24.016774 8.981-17.03-2.48 5.962109-5.00611 13.999756-8.71089 21.46-4.16 3.282946 3.05305 4.293005 8.60134 5.03 12.8zm-7.33 8.15c2.505054-8.38831-10.052873-2.96253-13.5-1.73-1.8199 8.19462 9.572851.86238 13.5 1.73z" id="path10"/><path class="cls-1" d="m93.71 254.48c-9.268591 8.2232-10.287596-2.62255-13.45-6.92-7.431352 1.33499 1.291561 8.67429-.38 13.36 8.719984-5.83593 19.408862 6.76749 5.36 6.78-10.700258-.58238 3.552998 16.2102-5.41625 18.81625C69.530912 290.73862 68.588946 277.19662 71.11 270.18c.397412-3.14638-8.873206-6.54783.24-7.77-4.515454-12.49635 4.168858-27.43199 18.69-20.51 2.270287 3.16368 4.347798 8.68308 3.67 12.58z" id="path11"/><path class="cls-1" d="m125.64 276.25c1.76817 9.59926-10.98848 7.23131-9.43.01-8.46299 4.71625-24.701803 7.23598-21.53-7.96-.08138-8.02514 3.058439-22.47674 12.9-13.36.21163 5.27369-2.51629 12.64911.1 16.69 16.81152 6.02075 2.58755-18.40286 13.56-16.34 2.33478 6.59017.8952 14.43855 4.4 20.96z" id="path12"/><path class="cls-1" d="m156.65 273.74c4.65539 10.48689-14.22904 15.03402-12.04 2.81.77994-13.06925-13.33175-2.68431-7.8 6.1-3.96214 11.26187-8.23162-5.16795-7.53-10.61-6.68788-9.41034 8.29497-17.81791 8.4-6.13 6.52014-2.00374 17.02344-5.95778 18.78 3.34-.37284 1.4718.28201 3.23814.19 4.49z" id="path13"/><path class="cls-1" d="m192.09 280.37c2.86193 13.23838-11.47383 5.63194-12.07 2.1-6.56182 1.94484-19.66093 3.77507-20.76-5.6-.0879-7.07967-.24194-14.53819 4.44-20.2 8.74057-4.6049 23.32365 5.85367 18.82-9.26.13198-13.45971 10.48117-.0688 6.56 7.28 2.44414 8.25557 1.82745 17.16415 3.01 25.68zm-9.06-15.08c-7.74925-5.46171-18.52224 5.65782-8.9 9.57 8.15106-1.02898 9.86417-1.41655 8.9-9.57z" id="path14"/><path class="cls-1" d="m221.4 268.31c.0283 10.10168-6.00459 22.27646-18.34 15.8-8.67235-2.80182-9.00702-14.84467-6.2-21.71.53343-9.14579 16.74986-6.18197 20.51-2.19 1.21371 2.78881 3.01078 5.2061 4.03 8.1zm-7.3 1.56c3.33753-15.00413-21.33765-4.5162-8.9 4.06 3.41118 2.81399 10.16577 1.89273 8.89-4.07zm4.49-20.27c-7.08191 7.56683-18.08153 4.01005-6.6-4.25 2.70905-4.67016 7.89466.50379 6.6 4.25z" id="path15"/><path class="cls-1" d="m275.15 272.31c-6.9186.0525-6.43664 6.73983-3.55 11.1 2.80251 17.89686-10.15133-3.8713-10.13 3.05-6.61809 5.89202-24.21211 1.14857-23.33-9 1.90541-6.24843.12254-12.52888 2.04-18.79.84513-10.68656 10.31519-19.32421 21.09-14.51 8.88647-.63749 15.17947 13.67611 8.38 18.16-8.17145 4.99097-11.49265-1.8075-11.78-9.03-10.72977-2.51184-7.23809 13.54245-8.91 20.03-2.18074 11.74043 18.96435 6.30039 10.53 2.7-11.16508.85155-4.02916-14.33989 5.05-8.53 4.11758.58206 13.42216-3.08441 10.61 4.82z" id="path16"/><path class="cls-1" d="m305.92 267.79c-.25616 5.77396 1.21398 27.77574-7.27 19.33 1.09904-8.61431-20.86085 12.95219-22.43-4.24.60667-5.44216-1.20452-13.19446 6.26-14.16 3.55829-5.22869 18.93313 1.41698 13.97-7.09-5.14033-4.70718-24.01677 8.981-17.03-2.48 5.96211-5.00611 13.99976-8.71089 21.46-4.16 3.28569 3.05655 4.27893 8.5866 5.04 12.8zm-7.33 8.15c2.50505-8.38831-10.05287-2.96253-13.5-1.73-1.8199 8.19462 9.57285.86238 13.5 1.73z" id="path17"/><path class="cls-1" d="m350 279.3c-5.27784 6.11099-13.4781-1.2394-9.71-7.5 2.51475-14.86861-10.72287-3.97474-4.66625 4.81625 4.45679 8.54803-10.27951 14.42789-12.33375 5.47375 2.56524-6.83856-1.497-19.07679-7.51-8.78 2.46045 5.74362 2.94501 19.60823-6.02 12.77-.67482-8.78156.81928-17.70793.57-26.6 7.85798-6.61167 2.50427 12.71162 11.71 3.9 9.13296.39376 12.79725-4.96622 22.57-5.12 7.44198 3.35888 4.29767 14.71488 5.39 21.04z" id="path18"/><path class="cls-1" d="m380.37 279.54c1.03512 10.56192-12.96271 7.70709-19.53 6.45-9.77781-2.80343-9.69961-18.25642-6.68-25.9 6.06107-5.55744 21.56127-10.17371 24.26 1.02 2.60506 10.17315-10.97376 9.2191-17.46 11.28-2.27265 10.63519 18.57683-1.10263 19.41 7.15zM368.56 265.5c1.01947-12.23459-17.20094 4.06906-4.44 1.36 1.43299-.27592 3.54615.0166 4.44-1.36z" id="path19"/><path class="cls-1" d="m409.28 281.62c-3.5911 8.11245-12.40719 6.56235-19.81 6.42-12.09829-.98765-8.03528-24.38555 2.98-13.92 1.62839 3.9999 7.97758 12.50345 9.06 3.44.36096-9.68092-25.47555-7.42994-14.24-21.18 5.82707-7.27251 27.64722 4.23896 14.84 7.28-6.30456-7.21422-14.95185.41841-4.25 2.7 8.78988.027 12.01064 7.7176 11.42 15.26z" id="path20"/></g><g id="g9" inkscape:label="Octo"><path class="cls-3" d="m138.13 159.26c10.8411-11.87252 27.04253-20.59688 43.49309-17.93406 9.45265 5.11459 4.32404 17.42153 1.44868 25.1055-5.7236 13.99999-15.43879 28.20301-30.19105 33.47825-9.53825 3.09409-25.26718 4.43106-28.55527-7.87869-2.31567-12.40663 5.59996-24.23042 13.80455-32.771z" id="path1"/><path class="cls-1" d="m160 185.39c4.93223-13.55059 15.20773-25.54851 28.95134-30.53665 10.07385-3.84083 17.45412 7.04238 17.12717 16.0592 1.05204 10.53369-1.85097 20.97687-7.20521 30.00465-4.83724 10.32331-11.66621 21.32152-23.30565 24.66938-9.12896 3.25334-18.50116-4.07842-20.41844-12.93961C152.65758 203.39371 156.3193 193.79287 160 185.39Z" id="path2"/><path class="cls-3" d="m269.97 160.01c-6.89292-8.06428-15.69293-14.92376-26.41466-16.66197-7.33394-2.38917-19.9296-5.20448-22.47833 4.96942-2.89635 13.50687 7.61642 24.50937 14.20922 35.08488 7.67894 10.1982 19.21243 17.79807 31.7312 20.34403 10.86956.75999 20.53727-10.64799 17.27433-21.25919-1.76173-8.9814-7.87649-16.32304-14.32176-22.47717z" id="path3"/><path class="cls-1" d="m242.28 191.13c-1.3715-10.10918-5.11748-20.42745-13.13345-27.15177-4.2193-4.69448-10.19331-9.6131-16.93981-8.23429-6.2059 1.94298-8.40283 8.85239-10.40557 14.35996-1.39683 5.46295-4.58377 10.74281-3.45078 16.56242 1.12963 6.86447 4.40275 13.12848 6.00693 19.87678 2.95451 9.08863 7.99252 18.84206 17.3482 22.59016 11.31564 4.08125 23.59653-6.04774 24.30584-17.46036.49305-7.06223-1.87279-13.84154-3.73136-20.5429z" id="path4"/><ellipse class="cls-2" cx="206.27" cy="95.15" rx="51.14" ry="41.33" id="ellipse1"/><path id="path5" class="cls-1" d="M203.41016.009766C169.66341.251688 134.70494 19.818964 122.61914 52.373047 112.99589 78.527892 122.25859 107.92514 138.53516 129.33203 154.54209 150.65268 179.98863 167.10157 207.39258 165.89453 234.15697 163.47067 259.86318 148.71294 273.77148 125.42383 292.61122 95.581761 293.19802 53.103343 269.48828 25.695312 253.20689 7.027007 227.55225-.595106 203.41016.009766zM175.0625 82.300781C175.44958 82.293808 175.83636 82.303032 176.22266 82.328125 185.53401 82.6199 199.19273 91.842286 193.39648 102.16211 187.44391 109.54953 175.43658 110.82486 167.40039 106.33594 158.28508 100.48717 161.31654 85.256465 171.62305 82.794922 172.7428 82.486063 173.90127 82.321701 175.0625 82.300781zM230.48438 82.326172C231.09937 82.324961 231.71252 82.351336 232.31836 82.404297 243.05045 81.797688 251.5759 96.798554 243.41406 104.84766 234.72722 112.02339 218.34096 111.0217 214.55273 98.990234 211.45381 88.407077 221.25945 82.34434 230.48438 82.326172zM230.02344 84.064453C227.27338 84.029279 224.53203 85.429297 222.58984 88.849609 228.96984 87.629609 230.01094 97.629141 223.46094 97.619141 212.58094 102.88914 241.75938 116.21063 240.35938 95.890625L240.34961 95.880859C240.55305 89.429922 235.27355 84.131603 230.02344 84.064453zM177.91602 84.091797C174.72547 84.048906 171.56063 85.761875 169.64062 89.890625 176.06062 84.790625 181.12969 97.199141 172.67969 97.619141 156.75969 93.759141 186.50016 122.75063 188.41016 95.890625L188.41992 95.880859C188.61992 89.112109 183.23359 84.163281 177.91602 84.091797z"/></g></g></svg>
